HIERARCHY
ROOT Hips
{
    OFFSET 0.000000 0.000000 0.000000
    CHANNELS 6 Xposition Yposition Zposition Zrotation Xrotation Yrotation
    JOINT Spine
    {
        OFFSET -0.000000 14.517291 0.000000
        CHANNELS 3 Zrotation Xrotation Yrotation
        JOINT Spine1
        {
            OFFSET -0.000000 37.558300 0.000000
            CHANNELS 3 Zrotation Xrotation Yrotation
            JOINT Neck
            {
                OFFSET -0.000000 37.404057 3.400369
                CHANNELS 3 Zrotation Xrotation Yrotation
                JOINT Head
                {
                    OFFSET -0.000000 24.785618 -3.540803
                    CHANNELS 3 Zrotation Xrotation Yrotation
                    End Site
                    {
                        OFFSET -0.000000 35.408028 0.000000
                    }
                }
            }
            JOINT LeftShoulder
            {
                OFFSET 6.992933 33.973492 -0.192664
                CHANNELS 3 Zrotation Xrotation Yrotation
                JOINT LeftArm
                {
                    OFFSET 21.527611 0.000000 0.000000
                    CHANNELS 3 Zrotation Xrotation Yrotation
                    JOINT LeftForeArm
                    {
                        OFFSET 56.353916 0.000000 0.000000
                        CHANNELS 3 Zrotation Xrotation Yrotation
                        JOINT LeftHand
                        {
                            OFFSET 47.774071 0.000000 0.000000
                            CHANNELS 3 Zrotation Xrotation Yrotation
                            End Site
                            {
                                OFFSET 26.556021 0.000000 0.000000
                            }
                        }
                    }
                }
            }
            JOINT RightShoulder
            {
                OFFSET -7.065357 33.973492 -0.192664
                CHANNELS 3 Zrotation Xrotation Yrotation
                JOINT RightArm
                {
                    OFFSET -21.527611 0.000000 0.000000
                    CHANNELS 3 Zrotation Xrotation Yrotation
                    JOINT RightForeArm
                    {
                        OFFSET -56.353916 0.000000 0.000000
                        CHANNELS 3 Zrotation Xrotation Yrotation
                        JOINT RightHand
                        {
                            OFFSET -47.774071 0.000000 0.000000
                            CHANNELS 3 Zrotation Xrotation Yrotation
                            End Site
                            {
                                OFFSET -26.556021 0.000000 0.000000
                            }
                        }
                    }
                }
            }
        }
    }
    JOINT LeftUpLeg
    {
        OFFSET 17.704014 0.000000 0.000000
        CHANNELS 3 Zrotation Xrotation Yrotation
        JOINT LeftLeg
        {
            OFFSET -0.000000 -81.181816 0.000000
            CHANNELS 3 Zrotation Xrotation Yrotation
            JOINT LeftFoot
            {
                OFFSET -0.000000 -62.821102 0.000000
                CHANNELS 3 Zrotation Xrotation Yrotation
                JOINT LeftToeBase
                {
                    OFFSET -0.000000 -11.507608 26.556021
                    CHANNELS 3 Zrotation Xrotation Yrotation
                    End Site
                    {
                        OFFSET -0.000000 0.000000 7.081605
                    }
                }
            }
        }
    }
    JOINT RightUpLeg
    {
        OFFSET -17.704014 0.000000 0.000000
        CHANNELS 3 Zrotation Xrotation Yrotation
        JOINT RightLeg
        {
            OFFSET -0.000000 -81.181816 0.000000
            CHANNELS 3 Zrotation Xrotation Yrotation
            JOINT RightFoot
            {
                OFFSET -0.000000 -62.821102 0.000000
                CHANNELS 3 Zrotation Xrotation Yrotation
                JOINT RightToeBase
                {
                    OFFSET -0.000000 -11.507608 26.556021
                    CHANNELS 3 Zrotation Xrotation Yrotation
                    End Site
                    {
                        OFFSET -0.000000 0.000000 7.081605
                    }
                }
            }
        }
    }
}
MOTION
Frames:    10
Frame Time:    0.008333
18.189373    165.810059    48.833019    2.983395    0.891426    -58.723206    0.403825    -2.938107    0.389781    0.505337    0.680573    0.122044    13.139184    2.185456    10.041629    -7.197556    7.462893    8.195472    8.666045    4.355611    -14.984348    -11.280087    -4.333519    -25.557228    15.699310    -1.632210    -53.365154    -2.448860    7.248993    -42.334610    -10.543676    -0.461530    -4.757728    34.287781    -21.432312    53.428532    4.370359    -24.927019    102.825684    16.424332    -25.557938    32.267616    6.403197    -6.898600    -1.055429    -8.634256    8.547152    -9.953626    -1.752051    -5.170185    46.660561    0.000000    0.000000    0.000000    -7.472118    -3.610348    -5.509364    4.657917    10.711816    -8.552649    2.590513    -5.729160    -4.173719    0.000000    0.000000    0.000000    
18.217546    165.831177    48.811108    2.999717    0.913390    -58.740314    0.388165    -2.945462    0.356345    0.484911    0.688414    0.111191    13.186136    2.198661    10.069247    -7.202146    7.404137    8.215613    8.688393    4.383359    -14.967885    -11.312581    -4.391609    -25.570732    15.731158    -1.664351    -53.424332    -2.426060    7.233553    -42.284782    -10.514434    -0.497101    -4.780616    34.339794    -21.465454    53.416817    4.412048    -24.907650    102.915085    16.437944    -25.594393    32.238331    6.405090    -6.943186    -1.055426    -8.616786    8.557177    -9.957459    -1.758154    -5.134747    46.679058    0.000000    0.000000    0.000000    -7.464726    -3.624045    -5.477244    4.668034    10.645765    -8.662342    2.620150    -5.647862    -4.084977    0.000000    0.000000    0.000000    
18.240852    165.852631    48.774063    3.014411    0.931311    -58.746197    0.351106    -2.945882    0.318703    0.487359    0.687655    0.098897    13.214532    2.238800    10.079272    -7.189641    7.311684    8.222223    8.694229    4.403185    -14.983199    -11.319022    -4.426430    -25.551401    15.765680    -1.691276    -53.482155    -2.419675    7.231183    -42.247837    -10.478971    -0.498892    -4.810027    34.371647    -21.497742    53.412045    4.430789    -24.906464    102.986130    16.458952    -25.609268    32.279842    6.409451    -6.987348    -1.037263    -8.599130    8.566295    -9.959291    -1.774257    -5.086315    46.672012    0.000000    0.000000    0.000000    -7.452951    -3.630955    -5.409719    4.702183    10.592995    -8.757105    2.583659    -5.589330    -4.270749    0.000000    0.000000    0.000000    
18.261669    165.869095    48.725403    3.023492    0.946358    -58.740135    0.309750    -2.930676    0.274672    0.492164    0.675703    0.085135    13.261819    2.282510    10.091519    -7.200501    7.220365    8.227407    8.698208    4.424941    -14.993734    -11.316947    -4.474679    -25.551725    15.760628    -1.680594    -53.525875    -2.409459    7.241441    -42.195221    -10.436234    -0.513701    -4.841487    34.405319    -21.523190    53.395046    4.461074    -24.855677    103.054153    16.397039    -25.616863    32.275478    6.420299    -7.028221    -1.017547    -8.585112    8.576619    -9.963554    -1.801775    -5.051758    46.670578    0.000000    0.000000    0.000000    -7.435670    -3.629133    -5.337690    4.720545    10.523035    -8.818644    2.576097    -5.539521    -4.288511    0.000000    0.000000    0.000000    
18.279720    165.881699    48.672874    3.032192    0.955529    -58.721817    0.263519    -2.923479    0.226957    0.492089    0.676161    0.069644    13.293553    2.317223    10.096479    -7.168252    7.141635    8.230182    8.721727    4.431919    -15.012102    -11.323474    -4.483455    -25.552681    15.769395    -1.683964    -53.559509    -2.407038    7.246839    -42.166428    -10.381642    -0.521980    -4.872078    34.425701    -21.540501    53.372665    4.468099    -24.828918    103.108566    16.345739    -25.616230    32.280251    6.431710    -7.070442    -0.996102    -8.579300    8.597092    -9.973902    -1.820211    -5.014610    46.659771    0.000000    0.000000    0.000000    -7.420781    -3.618757    -5.233677    4.741755    10.454184    -8.859192    2.581901    -5.516712    -4.374250    0.000000    0.000000    0.000000    
18.294930    165.891006    48.608910    3.036110    0.965965    -58.690468    0.205783    -2.900963    0.164601    0.519625    0.660092    0.049572    13.295595    2.339928    10.100365    -7.113708    7.088100    8.237696    8.726554    4.439971    -15.020839    -11.314541    -4.472227    -25.568544    15.797484    -1.659481    -53.554150    -2.391588    7.279299    -42.190414    -10.338850    -0.516406    -4.895428    34.453274    -21.570831    53.346214    4.472814    -24.782892    103.159134    16.331179    -25.588280    32.251564    6.449142    -7.115615    -0.965799    -8.570292    8.621377    -9.993562    -1.843967    -4.983357    46.633411    0.000000    0.000000    0.000000    -7.394480    -3.607359    -5.126634    4.753025    10.392783    -8.890687    2.576989    -5.504787    -4.461252    0.000000    0.000000    0.000000    
18.302444    165.892975    48.539864    3.029015    0.969036    -58.654648    0.146143    -2.866534    0.106043    0.548386    0.639958    0.030732    13.290368    2.385402    10.090826    -7.058201    7.012080    8.233591    8.736027    4.439650    -15.045008    -11.302212    -4.451855    -25.583382    15.795321    -1.615884    -53.519051    -2.346752    7.300251    -42.275352    -10.306611    -0.520770    -4.916865    34.484833    -21.565939    53.305523    4.467125    -24.766064    103.220085    16.338682    -25.573030    32.220757    6.477681    -7.145065    -0.942111    -8.578135    8.649295    -10.026180    -1.850098    -4.957551    46.609123    0.000000    0.000000    0.000000    -7.409783    -3.588589    -5.038048    4.769242    10.330276    -8.889829    2.695196    -5.457832    -4.192773    0.000000    0.000000    0.000000    
18.312584    165.890366    48.468327    3.028208    0.974049    -58.611801    0.087948    -2.842222    0.045513    0.574892    0.623492    0.009717    13.282699    2.415206    10.086193    -6.989468    6.967103    8.236109    8.748256    4.440240    -15.070465    -11.281629    -4.425065    -25.604504    15.793508    -1.575568    -53.459602    -2.324379    7.323093    -42.392925    -10.262424    -0.498435    -4.941051    34.511505    -21.613703    53.276295    4.489742    -24.688915    103.271484    16.313398    -25.540155    32.175003    6.500806    -7.185750    -0.909286    -8.579991    8.682962    -10.049402    -1.868427    -4.947706    46.574070    0.000000    0.000000    0.000000    -7.386242    -3.568856    -4.955893    4.794091    10.265447    -8.932780    2.647816    -5.458380    -4.264067    0.000000    0.000000    0.000000    
18.320772    165.887695    48.391544    3.024572    0.983991    -58.563244    0.039635    -2.829337    -0.005278    0.596701    0.623693    -0.018210    13.280993    2.446192    10.074094    -6.939120    6.920662    8.228673    8.768059    4.449566    -15.087144    -11.252278    -4.382765    -25.655508    15.777141    -1.560081    -53.389687    -2.296527    7.307395    -42.397579    -10.217422    -0.495310    -4.963507    34.523499    -21.633739    53.241657    4.517442    -24.637495    103.322952    16.270123    -25.539930    32.155624    6.530247    -7.232130    -0.882361    -8.578918    8.722574    -10.095763    -1.881240    -4.936104    46.567951    0.000000    0.000000    0.000000    -7.307180    -3.545204    -4.885647    4.800582    10.215237    -8.923338    2.495425    -5.516275    -4.772046    0.000000    0.000000    0.000000    
18.329311    165.884644    48.311432    3.022851    1.001936    -58.517181    0.001608    -2.822575    -0.063986    0.614252    0.627454    -0.028218    13.268454    2.443047    10.066489    -6.864603    6.915238    8.227744    8.795547    4.443804    -15.112097    -11.230187    -4.316183    -25.699680    15.811130    -1.556313    -53.314659    -2.321035    7.324427    -42.379921    -10.174594    -0.493756    -4.985482    34.534264    -21.665403    53.188866    4.537710    -24.567167    103.367554    16.249929    -25.503918    32.148201    6.573142    -7.285848    -0.843846    -8.594496    8.766786    -10.154357    -1.876970    -4.921664    46.564247    0.000000    0.000000    0.000000    -7.305903    -3.547506    -4.858266    4.800703    10.166040    -8.978749    2.585975    -5.463190    -4.376810    0.000000    0.000000    0.000000    
